P2
7 7
15
0  0 7 7 7 0 0
0  7 0 0 0 7 0
15 0 0 0 0 0 15
15 5 5 5 5 5 15
15 0 0 0 0 0 15
15 0 0 0 0 0 15
15 0 0 0 0 0 15
