P3
3 3
255
0 0 0   255 0 0   255 255 0
0 0 255 255 0 100 255 255 0
0 255 0 255 0 170 110 110 0 
